<svg width="494" height="482" viewBox="0 0 494 482" fill="none" xmlns="http://www.w3.org/2000/svg">
<path d="M118 59C118 91.5848 91.5848 118 59 118C26.4152 118 0 91.5848 0 59C0 26.4152 26.4152 0 59 0C91.5848 0 118 26.4152 118 59Z" fill="#525252"/>
<path d="M306 59C306 91.5848 279.585 118 247 118C214.415 118 188 91.5848 188 59C188 26.4152 214.415 0 247 0C279.585 0 306 26.4152 306 59Z" fill="#525252"/>
<path d="M494 59C494 91.5848 467.585 118 435 118C402.415 118 376 91.5848 376 59C376 26.4152 402.415 0 435 0C467.585 0 494 26.4152 494 59Z" fill="#525252"/>
<path d="M118 241C118 273.585 91.5848 300 59 300C26.4152 300 0 273.585 0 241C0 208.415 26.4152 182 59 182C91.5848 182 118 208.415 118 241Z" fill="#525252"/>
<path d="M306 241C306 273.585 279.585 300 247 300C214.415 300 188 273.585 188 241C188 208.415 214.415 182 247 182C279.585 182 306 208.415 306 241Z" fill="#525252"/>
<path d="M494 241C494 273.585 467.585 300 435 300C402.415 300 376 273.585 376 241C376 208.415 402.415 182 435 182C467.585 182 494 208.415 494 241Z" fill="#525252"/>
<path d="M118 423C118 455.585 91.5848 482 59 482C26.4152 482 0 455.585 0 423C0 390.415 26.4152 364 59 364C91.5848 364 118 390.415 118 423Z" fill="#525252"/>
<path d="M306 423C306 455.585 279.585 482 247 482C214.415 482 188 455.585 188 423C188 390.415 214.415 364 247 364C279.585 364 306 390.415 306 423Z" fill="#525252"/>
<path d="M494 423C494 455.585 467.585 482 435 482C402.415 482 376 455.585 376 423C376 390.415 402.415 364 435 364C467.585 364 494 390.415 494 423Z" fill="#525252"/>
</svg>
